<?xml version="1.0" encoding="UTF-8"?>
<svg id="Layer_2" data-name="Layer 2" xmlns="http://www.w3.org/2000/svg" viewBox="0 0 657 126.3">
  <defs>
    <style>
      .cls-1 {
        fill: #10325b;
      }
    </style>
  </defs>
  <g id="Layer_2-2" data-name="Layer 2">
    <g id="Layer_1-2" data-name="Layer 1-2">
      <path class="cls-1" d="M80.79,0h-15.11L0,126.3h21.3l14.61-28.89h74.45l14.62,28.89h21.29L80.79,0ZM101.71,79.98h-56.95l28.55-56.36,28.4,56.36Z"/>
      <path class="cls-1" d="M289.94,91.7v3.27c0,6.12-1.24,11.32-3.68,15.43-2.43,4.1-5.8,7.4-10.01,9.83-4.08,2.35-8.87,3.98-14.25,4.83-5.18.82-10.71,1.24-16.46,1.24h-54.17c-6.09,0-11.67-.67-16.59-1.99-4.96-1.34-9.45-3.24-13.36-5.68l-1.38-.87v-28.69l5.35,7.44c5.57,7.74,15.81,11.68,30.44,11.68h48.67c4.04,0,7.83-.14,11.29-.42,3.23-.26,6.09-.89,8.5-1.86,2.2-.9,3.87-2.13,5.11-3.77,1.15-1.53,1.73-3.71,1.73-6.48v-4.64c0-2.54-.58-4.7-1.78-6.59-1.27-2.01-3-3.78-5.12-5.27-2.21-1.54-4.84-2.8-7.8-3.73-3.05-.96-6.29-1.61-9.62-1.94l-47.52-5.33c-5.74-.7-11.1-1.68-15.96-2.9-5.02-1.27-9.46-3.06-13.19-5.33-3.88-2.35-6.98-5.33-9.22-8.86-2.31-3.61-3.47-7.99-3.47-13.02v-6.71c0-6.25,1.24-11.48,3.69-15.54,2.43-4.02,5.79-7.29,10-9.72,4.08-2.35,8.87-3.97,14.25-4.83C190.57.43,196.11,0,201.84,0h49.53c6.08,0,11.84.73,17.11,2.17,5.3,1.44,9.96,3.41,13.86,5.85l1.38.87v28.34l-5.35-7.44c-5.57-7.74-15.81-11.67-30.44-11.67h-45.07c-4.35,0-8.35.13-11.89.41-3.28.26-6.1.89-8.38,1.84-2.07.88-3.62,2.09-4.74,3.7-1.08,1.55-1.62,3.76-1.62,6.57v4.99c0,2.68.56,4.86,1.7,6.47,1.2,1.7,2.81,3.01,4.94,4.01,2.35,1.1,5.09,1.95,8.15,2.53,3.27.62,6.68,1.17,10.15,1.6l47.45,5.85c13.73,1.67,24.1,5.56,30.84,11.56,6.93,6.18,10.45,14.28,10.45,24.05"/>
      <path class="cls-1" d="M368.82,53v20.3c0,12.27,2.97,21.23,8.85,26.64,5.94,5.47,15.22,8.25,27.58,8.25h42.99c14.63,0,24.88-3.93,30.45-11.68l5.35-7.43v28.68l-1.38.87c-3.91,2.44-8.4,4.35-13.36,5.68-4.92,1.32-10.51,1.99-16.59,1.99h-51.94c-16.5,0-29.26-4.78-37.94-14.2-8.63-9.35-12.99-22.4-12.99-38.8v-20.3c0-16.4,4.36-29.46,12.99-38.8,8.68-9.42,21.45-14.2,37.95-14.2h51.94c6.07,0,11.65.67,16.59,1.99,4.96,1.33,9.45,3.24,13.35,5.68l1.39.87v28.68l-5.35-7.43c-5.57-7.74-15.82-11.67-30.45-11.67h-42.99c-12.36,0-21.64,2.77-27.58,8.25-5.88,5.4-8.85,14.37-8.85,26.63"/>
      <path class="cls-1" d="M644,14.2c-8.68-9.42-21.45-14.2-37.94-14.2h-51.94c-16.49,0-29.26,4.78-37.94,14.2-8.63,9.35-12.99,22.41-12.99,38.8v20.3c0,16.4,4.36,29.46,12.99,38.8,8.68,9.42,21.44,14.2,37.94,14.2h51.94c16.5,0,29.26-4.78,37.94-14.19,8.63-9.36,13-22.42,13-38.81v-20.3c0-16.4-4.37-29.46-13-38.8M638.01,53v20.3c0,12.27-2.97,21.23-8.85,26.64-5.94,5.47-15.22,8.25-27.58,8.25h-42.99c-12.36,0-21.64-2.78-27.58-8.25-5.87-5.41-8.85-14.37-8.85-26.64v-20.3c0-12.26,2.98-21.22,8.85-26.63,5.94-5.48,15.22-8.25,27.58-8.25h42.99c12.36,0,21.64,2.77,27.58,8.24,5.88,5.41,8.85,14.38,8.85,26.64"/>
      <polygon class="cls-1" points="329.77 23.61 329.77 126.3 310.96 126.3 310.96 36.73 329.77 23.61"/>
      <polygon class="cls-1" points="329.9 0 329.9 13.52 310.84 26.56 310.84 0 329.9 0"/>
    </g>
  </g>
</svg>